<svg width="512" height="512" viewBox="0 0 512 512" xmlns="http://www.w3.org/2000/svg">
  <defs>
    <linearGradient id="bg" x1="0" y1="0" x2="1" y2="1">
      <stop offset="0" stop-color="#1a1a1a"/>
      <stop offset="1" stop-color="#0e0e0e"/>
    </linearGradient>
    <linearGradient id="play" x1="0" y1="0" x2="1" y2="1">
      <stop offset="0" stop-color="#ffffff"/>
      <stop offset="1" stop-color="#bfbfbf"/>
    </linearGradient>
  </defs>

  <rect x="0" y="0" width="512" height="512" rx="112" fill="url(#bg)"/>
  <rect x="8" y="8" width="496" height="496" rx="104" fill="none" stroke="rgba(255,255,255,0.08)" stroke-width="2"/>

  <!-- Khung phim -->
  <rect x="120" y="150" width="272" height="212" rx="28" fill="none" stroke="rgba(255,255,255,0.18)" stroke-width="10"/>

  <!-- Lỗ film hai bên -->
  <g fill="rgba(255,255,255,0.15)">
    <rect x="92" y="172" width="22" height="26" rx="6"/>
    <rect x="92" y="222" width="22" height="26" rx="6"/>
    <rect x="92" y="272" width="22" height="26" rx="6"/>
    <rect x="92" y="322" width="22" height="26" rx="6"/>
    <rect x="398" y="172" width="22" height="26" rx="6"/>
    <rect x="398" y="222" width="22" height="26" rx="6"/>
    <rect x="398" y="272" width="22" height="26" rx="6"/>
    <rect x="398" y="322" width="22" height="26" rx="6"/>
  </g>

  <!-- Nút play -->
  <path d="M226 206 L226 306 L312 256 Z" fill="url(#play)"/>
</svg>
